<?xml version="1.0" encoding="iso-8859-1"?>
<!-- Generator: Adobe Illustrator 18.1.1, SVG Export Plug-In . SVG Version: 6.00 Build 0)  -->
<svg version="1.1" id="Capa_1" xmlns="http://www.w3.org/2000/svg" xmlns:xlink="http://www.w3.org/1999/xlink" x="0px" y="0px"
	 viewBox="0 0 496.03 496.03" style="enable-background:new 0 0 496.03 496.03;" xml:space="preserve">
<g>
	<g>
		<path style="fill:#010002;" d="M101.823,373.841h2.3l33.043-0.008l224.788-0.049l33.002-0.008h0.48
			c0.829,0,1.821-0.602,2.91-1.626c6.527-6.178,17.005-29.807,23.508-58.363l-0.683-148.192c-0.033-7.186-1.049-19.216-2.227-26.272
			L395.614,6.974C394.988,3.219,391.192,0,387.469,0H109.317c-3.682,0-7.592,3.3-8.21,6.934l-24.126,132.52
			c-1.195,6.974-2.211,18.972-2.211,26.109v149.712c7.47,25.881,18.192,50.202,24.768,56.876
			C100.368,372.988,101.14,373.597,101.823,373.841z M402.23,250.474c8.649,13.12,5.023,30.767-8.104,39.415l-20.882,13.754v7.6
			c0,15.713-12.737,28.45-28.45,28.45s-28.45-12.737-28.45-28.45v-38.237l46.479-30.637
			C375.951,233.729,393.598,237.363,402.23,250.474z M107.114,165.538c0-5.958,0.813-15.55,1.821-21.419l18.736-101.144
			c1.008-5.869,6.649-10.632,12.607-10.632h216.188c5.958,0,11.583,4.763,12.559,10.64l18.143,101.128
			c0.975,5.877,1.788,15.477,1.821,21.427l0.602,47.129c-143.299,49.511-282.468,0-282.468,0v-47.129H107.114z M92.02,250.474
			c8.641-13.111,26.288-16.753,39.415-8.104l46.479,30.628v38.245c0,15.713-12.737,28.45-28.45,28.45s-28.45-12.737-28.45-28.45
			v-7.592l-20.89-13.762C87.004,281.241,83.379,263.593,92.02,250.474z"/>
		<circle style="fill:#010002;" cx="149.976" cy="305.984" r="17.298"/>
		<circle style="fill:#010002;" cx="122.217" cy="271.283" r="17.298"/>
		<circle style="fill:#010002;" cx="372.057" cy="271.283" r="17.298"/>
		<circle style="fill:#010002;" cx="344.298" cy="305.984" r="17.298"/>
		<path style="fill:#010002;" d="M81.526,493.063h31.604l5.731-28.45h261.285l6.3,31.417h30.49l-5.649-31.417h18.102l-8.129-35.563
			h-16.363l-3.837-21.337h15.883l-5.592-26.166c-4.064,4.503-8.592,7.405-13.534,8.161c-0.797,0.122-1.569,0.325-2.39,0.325h-30.222
			H133.89h-32.547c-0.098,0-0.187-0.041-0.285-0.041c-6.08-0.138-11.778-4.682-16.981-11.665l-6.283,29.385h19.899l-4.04,21.337
			H74.771l-8.129,35.563h20.273L81.526,493.063z M130.329,407.713h238.411l4.276,21.337H126.029L130.329,407.713z"/>
	</g>
</g>
<g>
</g>
<g>
</g>
<g>
</g>
<g>
</g>
<g>
</g>
<g>
</g>
<g>
</g>
<g>
</g>
<g>
</g>
<g>
</g>
<g>
</g>
<g>
</g>
<g>
</g>
<g>
</g>
<g>
</g>
</svg>
